<?xml version="1.0" encoding="UTF-8" standalone="no"?>
<!-- Created with Inkscape (http://www.inkscape.org/) -->


<svg
   width="605.83191"
   height="747.98193"
   viewBox="0 0 605.83191 747.98193"
   xmlns="http://www.w3.org/2000/svg">
  <defs
     id="defs1308" />
  <g
     id="g1310"
     transform="translate(-209.08466,-143.00555)">
    <path
       style="fill:#000000"
       d="m 500.5,889.12919 c -5.24659,-2.39622 -67.92466,-38.35139 -86.5,-49.62057 -49.03279,-29.74694 -80.84084,-54.09107 -113.54552,-86.90151 -53.68107,-53.85466 -78.5174,-99.04 -88.62533,-161.23818 L 209.57529,577.5 l -0.32447,-152 c -0.35972,-168.50929 -0.76151,-157.75843 6.08846,-162.9127 2.08902,-1.57189 9.71702,-4.11962 22.49696,-7.51393 C 328.30622,231.04488 407.9468,198.24647 487,152.46015 c 13.39816,-7.75999 17.87206,-9.4458 25.09107,-9.45457 7.49248,-0.009 12.37242,2.05255 34.42504,14.5437 26.02491,14.74116 71.47102,37.68041 93.79844,47.34544 43.45802,18.81197 91.58318,35.37466 144.61954,49.77206 13.34628,3.62302 21.67548,6.41064 23.72663,7.94085 6.85392,5.11316 6.45165,-5.68492 6.08698,163.39237 l -0.32891,152.5 -2.2509,13.86893 c -6.36816,39.23738 -18.511,70.05016 -40.64237,103.13107 -13.29532,19.87321 -27.88952,37.12215 -49.91946,59 -31.26955,31.05367 -62.8294,55.47099 -105.69832,81.77697 -21.9323,13.45849 -89.71816,52.16171 -93.80696,53.56031 -5.27722,1.8051 -16.93482,1.42296 -21.60078,-0.70809 z"
       id="path1314" />
    <path
       style="fill:#000000"
       d="m 501.28604,533.61386 c -10.84577,-3.55586 -20.61186,-12.55321 -24.32714,-22.41223 -3.07889,-8.17026 -2.46364,-21.33366 1.37076,-29.32802 3.32457,-6.93142 10.83079,-14.1248 18.45227,-17.68324 4.93552,-2.30437 7.01821,-2.66974 15.21807,-2.66974 8.1977,0 10.28312,0.36565 15.21268,2.66728 7.57538,3.53697 12.12187,7.25196 16.29165,13.31209 12.55069,18.2405 5.1602,44.41733 -15.2689,54.08184 -6.93968,3.28299 -20.10579,4.27573 -26.94939,2.03202 z"
       id="path1340" />
    <path
       style="fill:#000000"
       d="m 503.16124,564.96167 c -15.12133,-2.05132 -27.58036,-8.2964 -38.73271,-19.41479 -9.01371,-8.98625 -12.97294,-15.26671 -17.05048,-27.04688 -2.4073,-6.95475 -2.77621,-9.56787 -2.82357,-20 -0.0483,-10.62966 0.27694,-13.01118 2.84773,-20.85486 5.62131,-17.15104 18.15155,-31.7599 33.91234,-39.53799 10.45364,-5.15897 18.76278,-7.07385 30.77549,-7.09237 C 550.21996,430.95601 580,460.33053 580,498 c 0,30.6931 -21.43642,58.46573 -50.5,65.42687 -8.16373,1.95533 -18.70907,2.56982 -26.33876,1.5348 z"
       id="path1336" />
    <path
       style="fill:#000000"
       d="M 489.44019,583.55918 C 455.96578,574.90412 430.25613,547.36354 424.40857,513.89625 416.74363,470.02766 442.05673,427.67534 484,414.19156 493.61648,411.10009 501.15564,410 512.72582,410 c 23.36897,0 43.35406,7.89368 60.42872,23.86804 13.67681,12.79546 22.74523,28.96163 26.39752,47.05855 2.25538,11.1753 1.55837,30.36657 -1.48556,40.9027 -7.62588,26.39593 -28.49284,49.30041 -53.45107,58.67023 -10.90188,4.09278 -19.5629,5.50507 -33.43081,5.45131 -9.93919,-0.0385 -14.6455,-0.55617 -21.74443,-2.39165 z"
       id="path1332" />
    <path
       style="fill:#000000"
       d="m 550.87162,615.02964 c 57.86301,-10.24159 108.81131,-38.41393 148.98562,-82.383 8.86413,-9.7014 27.15507,-33.38069 27.12471,-35.11538 -0.01,-0.56719 -3.27243,-5.38621 -7.25,-10.70892 -26.66588,-35.68378 -59.13479,-63.45703 -95.54864,-81.73035 -25.11686,-12.60423 -48.02363,-20.00055 -76.68331,-24.76011 -15.5779,-2.58705 -55.31847,-2.59682 -71,-0.0175 -55.98518,9.20867 -104.48802,34.52483 -145.22386,75.79991 -12.00338,12.16228 -23.06309,25.2512 -30.67437,36.30244 l -3.84539,5.58333 7.29165,9.74996 c 27.08558,36.21721 57.5824,62.7102 93.95197,81.61732 23.19339,12.05734 45.9341,20.08708 69.67559,24.60244 17.86146,3.39704 24.78524,3.90879 48.32441,3.57174 17.61682,-0.25225 25.18501,-0.7974 34.87162,-2.51191 z"
       id="path1330" />
    <path
       style="fill:#000000"
       d="M 488.5,640.35593 C 443.22938,635.40562 399.51061,619.8164 362,595.24861 343.95757,583.43162 334.7148,575.8221 317.42983,558.55425 c -16.92707,-16.9103 -24.74217,-26.33956 -37.5923,-45.35668 -9.66587,-14.3047 -9.93971,-16.27572 -3.63004,-26.12785 43.33851,-67.67031 113.76108,-115.21923 189.5957,-128.01394 90.31272,-15.23744 180.66995,14.93888 245.75118,82.07274 15.77041,16.2678 36.0264,42.8372 40.11083,52.61263 2.00823,4.80636 1.24179,7.10762 -6.07516,18.24085 -39.74715,60.47786 -100.81938,104.22336 -168.87808,120.96586 -22.39163,5.50836 -35.93742,7.17368 -61.21196,7.5254 -12.65,0.17603 -24.8,0.12323 -27,-0.11733 z"
       id="path1324" />
    <path
       style="fill:#000000;fill-opacity:1"
       d="m 519.44143,887.89456 c 3.695,-1.02586 57.63981,-31.37641 86.20609,-48.50146 29.58373,-17.735 57.11694,-36.8985 80.85248,-56.27449 14.69551,-11.99636 49.34884,-46.05178 60.66533,-59.61861 41.93742,-50.27692 61.58045,-97.8729 64.79444,-157 1.09889,-20.21595 1.15694,-283.72199 0.0642,-291.38608 -1.12899,-7.91829 -4.21754,-11.56558 -11.49618,-13.5759 C 797.7625,260.77427 786.95,257.82584 776.5,254.98596 687.31702,230.74969 621.40149,203.10657 532,152.44955 L 521.5,146.5 h -9.5 -9.5 l -13,7.60776 c -7.15,4.18427 -22,12.37505 -33,18.20174 -73.40659,38.88339 -133.49056,62.41486 -217.41508,85.14909 -11.22829,3.04163 -21.28687,6.31918 -22.35238,7.28346 -5.55526,5.02744 -5.20572,-3.94708 -5.54069,142.25795 -0.32287,140.92607 0.16551,164.88915 3.8098,186.93108 7.52852,45.53515 25.6362,84.91258 56.79854,123.5156 12.24371,15.16716 41.00776,44.62626 56.52992,57.8959 24.26041,20.73983 51.82682,40.35853 86.16989,61.32612 24.14661,14.74231 84.75729,49.29938 89.33619,50.93488 4.53334,1.61921 10.42544,1.72908 15.60524,0.29098 z"
       id="path1318" />
    <path
       style="fill:#000000"
       d="M 474,850.87083 C 430.26509,825.71312 417.48984,818.01869 396.73833,804.33671 365.85359,783.97365 341.95368,764.81599 317.12687,740.52184 288.08552,712.10358 268.86592,686.73372 254.61026,658 242.79168,634.17847 236.22517,613.35044 231.75298,585.5 l -2.2481,-14 -0.002,-146.47028 -0.002,-146.47029 6,-1.69008 c 3.3,-0.92955 16.8,-4.72094 30,-8.42532 44.29651,-12.43113 92.33322,-29.57741 131.5,-46.93777 29.69107,-13.16032 77.75959,-37.8769 104.22971,-53.59436 9.05526,-5.37684 10.45466,-5.92111 12.65108,-4.92035 1.35828,0.61887 9.92826,5.302 19.0444,10.40694 67.73837,37.9328 114.04992,58.72708 180.57481,81.07962 18.41134,6.18626 63.79536,19.57154 76.29014,22.50053 l 5.29013,1.2401 -0.36284,147.64063 C 794.33329,582.1624 794.50093,576.59911 789.40959,602 782.20034,637.96722 764.69623,673.78425 738.09366,707.00298 726.90374,720.97588 690.716,756.8893 674.5,770.11458 652.8511,787.77077 630.89679,803.1441 604,819.48166 581.06144,833.41492 513.21848,872.00691 511.79223,871.93339 511.0815,871.89676 494.075,862.41861 474,850.87083 Z"
       id="path1320" />
    <path
       style="fill:#ffffff;fill-opacity:1"
       d="m 548.25709,848.83969 c 44.36291,-25.3773 61.42769,-35.59264 78.60612,-47.05531 37.19265,-24.81756 61.96733,-45.60337 91.81728,-77.03413 35.95663,-37.86084 58.09749,-77.35465 67.73123,-120.81576 C 792.00296,578.71054 792,578.80608 792,423.29467 V 280.07709 l -3.75,-0.96295 C 730.2719,264.2261 673.70369,244.89085 625.57384,223.51075 596.67983,210.67553 559.8439,191.79219 522.31954,170.57909 l -10.18046,-5.75517 -14.81954,8.46669 C 434.94707,208.92518 376.0474,235.65014 315,256.01573 c -20.88502,6.9673 -58.42632,18.11689 -74.27827,22.0603 l -8.77827,2.18372 0.30845,148.12013 c 0.33217,159.50952 0.0429,149.99551 5.29393,174.12012 17.2841,79.4078 79.19428,150.9409 187.45416,216.59084 23.16683,14.04861 85.31536,49.74697 86.75709,49.83362 0.6914,0.0415 17.1164,-8.9966 36.5,-20.08477 z"
       id="path1322" />
    <path
       style="fill:#000000"
       d="m 547.5,635.99026 c 50.70686,-7.43858 94.47924,-26.50924 135.62808,-59.0902 12.25466,-9.70303 33.64477,-30.93107 43.22761,-42.90006 10.11274,-12.63084 23.6444,-33.27623 23.64375,-36.07351 C 749.99847,493.72899 737.1139,474.50118 723.24466,458 713.68213,446.6228 694.73651,428.10383 683,418.66162 655.27518,396.35658 619.74005,377.84768 585.82943,368.04915 545.01029,356.25441 498.28763,354.63814 455.88413,363.554 387.16452,378.00313 322.35179,422.64716 281.91401,483.38736 277.5613,489.92541 274,496.33058 274,497.62107 c 0,2.53774 11.40445,19.99219 21.48256,32.87893 35.9734,45.99873 85.71431,80.03777 141.51744,96.84418 17.98222,5.41576 35.60418,8.69407 59.5,11.0691 8.93025,0.88759 37.77381,-0.48277 51,-2.42302 z"
       id="path1326" />
    <path
       style="fill:#ffffff;fill-opacity:1"
       d="M 496,620.3944 C 424.34671,613.95393 363.23857,582.20741 315.5551,526.65078 308.00266,517.85133 294,499.14076 294,497.84853 c 0,-1.15809 9.04803,-13.77819 16.38134,-22.84853 3.33504,-4.125 11.02607,-12.62379 17.09118,-18.88619 41.52877,-42.87967 92.53843,-69.66322 149.02748,-78.24958 18.46021,-2.80596 49.06549,-3.00907 68,-0.45126 65.68341,8.87297 126.51063,43.96497 169.64148,97.86835 8.45777,10.57021 15.85852,21.07036 15.85852,22.5 0,1.41252 -10.73397,16.07394 -19.77521,27.01074 -4.55136,5.5056 -14.06927,15.62381 -21.15091,22.48491 -40.27472,39.02049 -88.49874,62.84168 -144.07388,71.16806 -10.3457,1.55001 -40.22035,2.73852 -49,1.94937 z"
       id="path1328" />
    <path
       style="fill:#000000"
       d="m 527.48285,582.47503 c 37.87589,-6.605 66.35214,-37.23482 70.74868,-76.09917 2.37861,-21.02631 -4.3147,-43.9527 -17.78871,-60.93108 -12.43188,-15.66523 -28.86289,-26.08711 -49.08939,-31.13649 -10.11245,-2.52449 -30.30312,-2.2354 -40.85343,0.58493 -41.7383,11.15758 -68.81654,49.87661 -64.44328,92.1471 3.90965,37.78945 32.48829,68.40985 70.44328,75.47598 9.60191,1.7876 20.57917,1.77298 30.98285,-0.0413 z"
       id="path1334" />
    <path
       style="fill:#ffffff;fill-opacity:1"
       d="m 526.5,561.50065 c 15.57031,-3.25781 30.90954,-13.82664 40.07314,-27.61066 14.6946,-22.10384 14.64767,-49.74673 -0.12218,-71.96376 -6.10938,-9.18981 -14.08915,-16.05935 -24.95096,-21.47949 -19.311,-9.63637 -38.7494,-9.71922 -58.46253,-0.24918 -6.88059,3.30539 -10.06514,5.67645 -17.03561,12.68389 C 452.71273,466.24106 447,479.80554 447,498 c 0,10.89158 1.84829,18.87727 6.62636,28.62975 13.00818,26.55088 43.31858,41.05477 72.87364,34.8709 z"
       id="path1338" />
    <path
       style="fill:#000000"
       d="m 524,530.42248 c 14.42875,-4.72024 23.80094,-19.04038 22.78832,-34.81918 -0.78308,-12.20203 -6.85893,-21.69731 -17.51954,-27.37936 -10.03243,-5.34723 -23.24838,-5.8258 -32.37022,-1.17219 -6.34586,3.23742 -13.55569,10.54585 -16.59491,16.82186 -2.29525,4.73972 -2.73085,6.96591 -2.76414,14.12639 -0.034,7.31917 0.34687,9.2868 2.7418,14.16366 8.14323,16.58233 26.02046,24.04863 43.71869,18.25882 z"
       id="path1342" />
  </g>
</svg>
