<?xml version="1.0" encoding="UTF-8" standalone="no"?>
<!-- Created with Inkscape (http://www.inkscape.org/) -->

<svg
   version="1.1"
   id="svg1304"
   width="605.83191"
   height="747.98193"
   viewBox="0 0 605.83191 747.98193"
   xmlns="http://www.w3.org/2000/svg">
  <defs
     id="defs1308" />
  <g
     id="g1310"
     transform="translate(-209.08466,-143.00555)">
    <path
       id="path1318"
       style="fill:#ffffff;fill-opacity:0.875"
       d="m 502.50068,146.49969 -13,7.60742 c -7.15,4.18427 -22,12.37644 -33,18.20313 -73.40659,38.88339 -133.4915,62.4142 -217.41602,85.14843 -11.22829,3.04164 -21.28605,6.31893 -22.35156,7.28321 -5.55526,5.02744 -5.20605,-3.94722 -5.54102,142.25781 -0.32287,140.92607 0.16431,164.88971 3.8086,186.93164 7.52852,45.53515 25.63648,84.91261 56.79882,123.51563 12.24371,15.16716 41.00909,44.62684 56.53125,57.89648 24.26041,20.73983 51.82686,40.35858 86.16993,61.32617 24.14661,14.74231 84.75703,49.2981 89.33593,50.9336 4.53334,1.61921 10.42567,1.72911 15.60547,0.29101 3.695,-1.02586 57.6388,-31.3769 86.20508,-48.50195 29.58373,-17.735 57.11798,-36.89745 80.85352,-56.27344 14.69551,-11.99636 49.34757,-46.05231 60.66406,-59.61914 41.93742,-50.27692 61.58093,-97.8729 64.79492,-157 1.09889,-20.21595 1.15719,-283.72263 0.0644,-291.38672 -1.12899,-7.91829 -4.21745,-11.5639 -11.49609,-13.57422 -2.76529,-0.76375 -13.57734,-3.71285 -24.02734,-6.55273 -89.18298,-24.23627 -155.09851,-51.88009 -244.5,-102.53711 l -10.5,-5.94922 h -9.5 z m 9.75195,16.08203 c 0.58155,0.006 1.0798,0.15997 1.6289,0.41016 1.35829,0.61887 9.92879,5.30131 19.04493,10.40625 67.73837,37.9328 114.04933,58.72754 180.57422,81.08008 18.41134,6.18626 63.79623,19.57101 76.29101,22.5 l 5.28906,1.24023 -0.36328,147.64063 c -0.38502,156.30303 -0.21725,150.73973 -5.30859,176.14062 -7.20925,35.96722 -24.71188,71.78518 -51.31445,105.00391 -11.18992,13.9729 -47.37775,49.88605 -63.59375,63.11132 -21.6489,17.65619 -43.60321,33.02963 -70.5,49.36719 -22.93856,13.93326 -90.78274,52.52469 -92.20899,52.45117 -0.71073,-0.0366 -17.71601,-9.51472 -37.79101,-21.0625 -43.73491,-25.15771 -56.51021,-32.85122 -77.26172,-46.5332 -30.88474,-20.36306 -54.78452,-39.52226 -79.61133,-63.81641 -29.04135,-28.41826 -48.26192,-53.78776 -62.51758,-82.52148 -11.81858,-23.82153 -18.38523,-44.64956 -22.85742,-72.5 l -2.24805,-14 -0.002,-146.4707 -0.002,-146.46875 6,-1.69141 c 3.3,-0.92955 16.8,-4.71945 30,-8.42383 44.29651,-12.43113 92.33322,-29.57909 131.5,-46.93945 29.69107,-13.16032 77.76034,-37.87629 104.23046,-53.59375 6.79145,-4.03263 9.27683,-5.34716 11.02149,-5.33008 z" />
    <path
       style="fill:#ffffff;fill-opacity:0"
       d="m 548.25709,848.83969 c 44.36291,-25.3773 61.42769,-35.59264 78.60612,-47.05531 37.19265,-24.81756 61.96733,-45.60337 91.81728,-77.03413 7.3756,-7.7662 14.16988,-15.6011 20.39414,-23.52487 24.11952,-30.70522 39.67947,-62.74473 47.33709,-97.29089 C 792.00295,578.71054 792,578.80608 792,423.29467 V 280.07709 l -3.75,-0.96295 C 730.2719,264.2261 673.70369,244.89085 625.57384,223.51075 596.67983,210.67553 559.8439,191.79219 522.31954,170.57909 l -10.18046,-5.75517 -14.81954,8.46669 C 434.94707,208.92518 376.0474,235.65014 315,256.01573 c -20.88502,6.9673 -58.42632,18.11689 -74.27827,22.0603 l -8.77827,2.18372 0.30845,148.12013 c 0.33217,159.50952 0.0429,149.99551 5.29393,174.12012 17.2841,79.4078 79.19428,150.9409 187.45416,216.59084 23.16683,14.04861 85.31536,49.74697 86.75709,49.83362 0.6914,0.0415 17.1164,-8.9966 36.5,-20.08477 z"
       id="path1322" />
    <path
       id="path1326"
       style="fill:#ffffff;fill-opacity:1"
       d="m 521.45185,358.03485 c -22.0835,-0.76393 -44.36661,1.0616 -65.56836,5.51953 -68.71961,14.44913 -133.53097,59.09183 -173.96875,119.83203 -4.35271,6.53805 -7.91406,12.94388 -7.91406,14.23437 0,2.53774 11.40431,19.99217 21.48242,32.87891 35.9734,45.99873 85.71445,80.03734 141.51758,96.84375 17.98222,5.41576 35.60418,8.69528 59.5,11.07031 8.93025,0.88759 37.77381,-0.48357 51,-2.42383 50.70686,-7.43858 94.47811,-26.50888 135.62695,-59.08984 12.25466,-9.70303 33.64567,-30.9314 43.22851,-42.90039 10.11274,-12.63084 23.64323,-33.27499 23.64258,-36.07227 -9.7e-4,-4.1975 -12.88466,-23.42655 -26.7539,-39.92773 -9.56253,-11.3772 -28.50763,-29.89568 -40.24414,-39.33789 -27.72482,-22.30504 -63.26126,-40.81475 -97.17188,-50.61328 -20.40957,-5.89737 -42.29346,-9.24975 -64.37695,-10.01367 z m -11.12891,17.59179 c 12.32566,-0.0818 24.71048,0.50821 34.17774,1.78711 65.68341,8.87297 126.50977,43.96381 169.64062,97.86719 8.45777,10.57021 15.85938,21.07036 15.85938,22.5 0,1.41252 -10.73415,16.07492 -19.7754,27.01172 -4.55136,5.5056 -14.0707,15.62327 -21.15234,22.48437 -40.27472,39.02049 -88.49712,62.84159 -144.07226,71.16797 -10.3457,1.55001 -40.22035,2.73837 -49,1.94922 -71.65329,-6.44047 -132.76185,-38.18751 -180.44532,-93.74414 -7.55244,-8.79945 -21.55468,-27.50855 -21.55468,-28.80078 0,-1.15809 9.04755,-13.77927 16.38085,-22.84961 3.33505,-4.125 11.02669,-12.62432 17.0918,-18.88672 41.52877,-42.87967 92.5383,-69.66168 149.02735,-78.24805 9.2301,-1.40297 21.4966,-2.15648 33.82226,-2.23828 z" />
    <path
       id="path1334"
       style="fill:#ffffff;fill-opacity:1"
       d="m 511.09052,412.59735 c -7.63051,0.10925 -15.31469,0.88475 -20.58984,2.29492 -41.7383,11.15758 -68.81662,49.87795 -64.44336,92.14844 3.90965,37.78945 32.48837,68.41043 70.44336,75.47656 9.60191,1.7876 20.57874,1.77131 30.98242,-0.043 37.87589,-6.605 66.3515,-37.23331 70.74804,-76.09766 2.37861,-21.02631 -4.31505,-43.95326 -17.78906,-60.93164 -12.43188,-15.66523 -28.86139,-26.08734 -49.08789,-31.13672 -5.05622,-1.26224 -12.63316,-1.82019 -20.26367,-1.71093 z m 1.32812,20.56054 c 9.73762,0.0415 19.42654,2.47088 29.08204,7.28907 10.86181,5.42014 18.84179,12.2887 24.95117,21.47851 14.76985,22.21703 14.81569,49.86101 0.12109,71.96485 -9.1636,13.78402 -24.50195,24.35156 -40.07226,27.60937 -29.55506,6.18387 -59.86682,-8.31826 -72.875,-34.86914 -4.77807,-9.75248 -6.625,-17.73928 -6.625,-28.63086 0,-18.19446 5.71282,-31.75953 19.00195,-45.11914 6.97047,-7.00744 10.15457,-9.3782 17.03515,-12.68359 9.85657,-4.73502 19.64325,-7.08057 29.38086,-7.03907 z" />
    <path
       style="fill:#ffffff;fill-opacity:1"
       d="m 524,530.42248 c 14.42875,-4.72024 23.80094,-19.04038 22.78832,-34.81918 -0.78308,-12.20203 -6.85893,-21.69731 -17.51954,-27.37936 -10.03243,-5.34723 -23.24838,-5.8258 -32.37022,-1.17219 -6.34586,3.23742 -13.55569,10.54585 -16.59491,16.82186 -2.29525,4.73972 -2.73085,6.96591 -2.76414,14.12639 -0.034,7.31917 0.34687,9.2868 2.7418,14.16366 8.14323,16.58233 26.02046,24.04863 43.71869,18.25882 z"
       id="path1342" />
  </g>
</svg>
